<svg xmlns="http://www.w3.org/2000/svg" version="1.1" xmlns:xlink="http://www.w3.org/1999/xlink" xmlns:svgjs="http://svgjs.com/svgjs" width="500" height="1000" preserveAspectRatio="none" viewBox="0 0 500 1000"><g mask="url(&quot;#SvgjsMask1019&quot;)" fill="none"><rect width="500" height="1000" x="0" y="0" fill="rgba(255, 117, 24, 1)"></rect><path d="M500.00000000000006 1000L0 1000 L0 662.63Q6.45 627.41, 41.66666666666667 633.86Q50.21 600.73, 83.33333333333334 609.27Q67.24 568.18, 108.33333333333334 552.09Q155.05 573.81, 133.33333333333334 620.52Q100.13 545.65, 175 512.44Q234.14 529.91, 216.66666666666669 589.05Q206.83 554.21, 241.66666666666669 544.37Q245.25 506.28, 283.33333333333337 509.86Q302.87 504.4, 308.33333333333337 523.94Q361.46 552.07, 333.33333333333337 605.2Q359.85 606.72, 358.33333333333337 633.23Q340.54 590.43, 383.33333333333337 572.64Q396.46 544.1, 425.00000000000006 557.22Q417.56 524.78, 450.00000000000006 517.33Q517.32 559.65, 475.00000000000006 626.97Q442.08 569.05, 500.00000000000006 536.12z" fill="rgba(0, 0, 0, 1)"></path><path d="M500.0000000000001 1000L0 1000 L0 657.94Q75.72 708.66, 25 784.38Q0.37 718.09, 66.66666666666667 693.46Q58.79 643.92, 108.33333333333334 636.05Q129.49 615.54, 150 636.69Q177.26 622.29, 191.66666666666669 649.55Q216.01 648.89, 216.66666666666669 673.24Q271.47 703.05, 241.66666666666669 757.85Q210.13 684.64, 283.33333333333337 653.1Q366.56 711.33, 308.33333333333337 794.55Q275.99 737.21, 333.33333333333337 704.87Q323.67 653.54, 375.00000000000006 643.87Q389.84 617.04, 416.66666666666674 631.88Q449.96 623.5, 458.3333333333334 656.79Q510.81 667.6, 500.0000000000001 720.08z" fill="rgba(255, 117, 24, 1)"></path><path d="M508.3333333333334 1000L0 1000 L0 780.28Q6.49 745.11, 41.66666666666667 751.6Q68.03 736.3, 83.33333333333334 762.66Q117.15 771.48, 108.33333333333334 805.3Q158.14 830.11, 133.33333333333334 879.91Q175.54 880.45, 175 922.66Q140.51 863.17, 200 828.68Q184.77 788.45, 225 773.22Q289.45 796, 266.6666666666667 860.45Q254.38 806.49, 308.33333333333337 794.2Q371.5 832.37, 333.33333333333337 895.53Q290.01 810.54, 375.00000000000006 767.21Q413.39 780.6, 400.00000000000006 818.98Q450.03 827.35, 441.66666666666674 877.38Q407.87 818.59, 466.66666666666674 784.79Q544.97 821.42, 508.3333333333334 899.72z" fill="rgba(0, 0, 0, 1)"></path><path d="M525.0000000000001 1000L0 1000 L0 896.83Q61.21 933.04, 25 994.24Q2.26 929.84, 66.66666666666667 907.1Q149.02 947.79, 108.33333333333334 1030.14Q104.23 1001.04, 133.33333333333334 996.93Q131.09 969.69, 158.33333333333334 967.45Q160.86 944.98, 183.33333333333334 947.51Q183.24 905.75, 225 905.65Q236.95 875.93, 266.6666666666667 887.88Q281.98 861.53, 308.33333333333337 876.84Q342.25 869.09, 350.00000000000006 903Q396.23 907.56, 391.66666666666674 953.79Q432.25 969.38, 416.66666666666674 1009.96Q371.48 939.78, 441.66666666666674 894.59Q491.8 903.05, 483.3333333333334 953.18Q517.26 945.44, 525.0000000000001 979.36z" fill="rgba(255, 117, 24, 1)"></path></g><defs><mask id="SvgjsMask1019"><rect width="500" height="1000" fill="#ffffff"></rect></mask></defs></svg>